<?xml version="1.0" standalone="no"?>
<!DOCTYPE svg PUBLIC "-//W3C//DTD SVG 20010904//EN"
 "http://www.w3.org/TR/2001/REC-SVG-20010904/DTD/svg10.dtd">
<svg version="1.0" xmlns="http://www.w3.org/2000/svg"
 width="512.000000pt" height="512.000000pt" viewBox="0 0 512.000000 512.000000"
 preserveAspectRatio="xMidYMid meet">
<metadata>
Created by potrace 1.14, written by Peter Selinger 2001-2017
</metadata>
<g transform="translate(0.000000,512.000000) scale(0.100000,-0.100000)"
fill="#000000" stroke="none">
<path d="M1293 5106 c-96 -31 -165 -90 -198 -169 -8 -18 -111 -397 -231 -842
-206 -771 -216 -812 -212 -880 7 -114 67 -204 167 -251 19 -9 260 -77 535
-151 276 -74 645 -173 821 -220 284 -76 326 -85 377 -79 105 11 213 85 251
173 9 21 114 400 232 842 242 905 239 889 185 998 -30 59 -75 104 -138 137
-18 9 -173 54 -345 101 -1071 288 -1298 347 -1347 351 -31 2 -73 -2 -97 -10z
m393 -501 c102 -30 164 -113 164 -221 0 -75 -25 -130 -79 -176 -73 -62 -172
-74 -259 -29 -179 92 -153 366 42 427 54 17 73 17 132 -1z m892 -237 c64 -16
146 -96 162 -158 59 -221 -198 -390 -370 -243 -58 50 -83 104 -83 178 0 110
70 199 178 226 45 11 62 10 113 -3z m-1125 -659 c49 -13 115 -73 138 -124 45
-99 10 -226 -81 -288 -38 -27 -56 -32 -116 -35 -56 -3 -79 0 -110 16 -149 77
-180 257 -64 372 64 65 142 84 233 59z m917 -250 c60 -27 88 -54 116 -114 40
-85 28 -174 -35 -246 -46 -54 -100 -79 -175 -79 -109 0 -191 62 -222 168 -25
84 6 181 76 240 62 53 164 66 240 31z"/>
<path d="M3700 2603 c-48 -9 -1595 -424 -1637 -439 -57 -21 -129 -86 -161
-148 -22 -43 -26 -64 -27 -131 0 -73 18 -148 214 -875 118 -437 223 -814 233
-837 45 -97 141 -162 252 -170 56 -5 133 14 871 212 446 119 826 223 844 231
123 51 208 204 183 329 -6 28 -106 406 -222 840 -139 517 -221 807 -238 839
-29 54 -77 97 -137 125 -42 20 -132 32 -175 24z m-102 -522 c147 -76 177 -257
62 -371 -89 -89 -221 -94 -312 -12 -54 48 -78 102 -78 175 0 94 43 166 123
206 56 28 153 29 205 2z m-362 -556 c101 -30 164 -113 164 -218 0 -66 -15
-108 -55 -155 -68 -81 -196 -103 -287 -49 -176 103 -149 362 44 422 56 18 75
18 134 0z m-315 -570 c89 -32 152 -121 152 -215 0 -135 -96 -233 -228 -233
-174 0 -286 177 -209 331 54 108 172 157 285 117z"/>
</g>
</svg>
